#N canvas 827 239 527 327 12;
#X floatatom 252 231 0 0 0 0 - - - 0;
#X floatatom 252 136 4 0 0 0 - - - 0;
#X floatatom 270 161 4 0 0 0 - - - 0;
#X obj 252 205 +;
#X text 228 183 hot;
#X text 275 185 cold;
#X text 479 159 same as:;
#X floatatom 401 231 0 0 0 0 - - - 0;
#X floatatom 401 136 4 0 0 0 - - - 0;
#X floatatom 438 136 4 0 0 0 - - - 0;
#X obj 401 205 +;
#X text 377 183 hot;
#X obj 424 161 t b f;
#X text 447 183 was once cold but is now hot;
#X obj 550 159 trigger bang float;
#X text 218 98 BadBadNotGood;
#X text 377 98 GoodGoodNotBad;
#X text 447 220 sometimes referred to as turning the second inlet hot;
#X connect 1 0 3 0 empty;
#X connect 2 0 3 1 empty;
#X connect 3 0 0 0 empty;
#X connect 8 0 10 0 empty;
#X connect 9 0 12 0 empty;
#X connect 10 0 7 0 empty;
#X connect 12 0 10 0 empty;
#X connect 12 1 10 1 empty;
