#N canvas 502 103 499 476 12;
#X floatatom 236 115 3 0 0 0 - - - 0;
#X msg 197 55 5 6;
#X text 33 21 Most Pd messages are just numbers or short lists of numbers:;
#X msg 67 55 5;
#X obj 67 86 + 9;
#X obj 135 86 +;
#X obj 197 86 unpack;
#X msg 291 55 5;
#X obj 291 115 print;
#X msg 135 55 5 6;
#X floatatom 197 115 3 0 0 0 - - - 0;
#X floatatom 135 115 3 0 0 0 - - - 0;
#X floatatom 67 115 3 0 0 0 - - - 0;
#X obj 291 86 pack float 78;
#X connect 1 0 6 0 empty;
#X connect 3 0 4 0 empty;
#X connect 4 0 12 0 empty;
#X connect 5 0 11 0 empty;
#X connect 6 0 10 0 empty;
#X connect 6 1 0 0 empty;
#X connect 7 0 13 0 empty;
#X connect 9 0 5 0 empty;
#X connect 13 0 8 0 empty;
