#N canvas 827 239 527 327 12;
#X floatatom 487 329 4 0 0 0 - - - 0;
#X obj 487 303 + 1;
#X obj 487 250 metro 500;
#X obj 487 277 float;
#X obj 487 221 trigger bang bang;
#X msg 647 250 0;
#X text 508 186 <-- click here to start;
#X msg 437 187 stop;
#X obj 487 185 bng 25 250 50 0 empty empty empty 17 7 0 10 #191919 #ffffff #ffffff;
#X text 309 186 click here to stop -->;
#X obj 572 250 select 16;
#X floatatom 369 48 4 0 0 0 - - - 0;
#X msg 85 40 bang;
#X obj 142 72 + 1;
#X obj 85 73 float;
#X obj 337 73 float;
#X text 397 75 same as:;
#X floatatom 490 45 5 0 0 0 - - - 0;
#X obj 472 75 f;
#X floatatom 337 97 4 0 0 0 - - - 0;
#X floatatom 472 99 4 0 0 0 - - - 0;
#X floatatom 142 97 4 0 0 0 - - - 0;
#X obj 337 47 bng 19 250 50 0 empty empty empty 17 7 0 10 #dfdfdf #000000 #000000;
#X obj 462 46 bng 19 250 50 0 empty empty empty 17 7 0 10 #dfdfdf #000000 #000000;
#X obj 151 260 + 1;
#X obj 94 261 float;
#X floatatom 151 285 4 0 0 0 - - - 0;
#X obj 94 224 metro 500;
#X obj 97 187 tgl 21 0 empty empty empty 0 -11 0 12 #fcfcfc #000000 #000000 0 1;
#X obj 759 59 tgl 25 0 empty empty empty 17 7 0 10 #191919 #ffffff #ffffff 0 1;
#X obj 759 93 metro 1000;
#X obj 759 213 i 0;
#X floatatom 759 271 5 0 0 0 empty - - 12;
#X obj 812 215 + 1;
#X obj 759 242 mod 16;
#X obj 879 99 t b b;
#X msg 895 132 0;
#X text 827 62 toggles on and off and resets counter;
#X text 939 98 same as "trigger bang bang";
#X text 759 18 my fav;
#X connect 1 0 0 0 empty;
#X connect 1 0 3 1 empty;
#X connect 1 0 10 0 empty;
#X connect 2 0 3 0 empty;
#X connect 3 0 1 0 empty;
#X connect 4 0 2 0 empty;
#X connect 4 1 5 0 empty;
#X connect 5 0 3 1 empty;
#X connect 7 0 2 0 empty;
#X connect 8 0 4 0 empty;
#X connect 10 0 5 0 empty;
#X connect 11 0 15 1 empty;
#X connect 12 0 14 0 empty;
#X connect 13 0 14 1 empty;
#X connect 13 0 21 0 empty;
#X connect 14 0 13 0 empty;
#X connect 15 0 19 0 empty;
#X connect 17 0 18 1 empty;
#X connect 18 0 20 0 empty;
#X connect 22 0 15 0 empty;
#X connect 23 0 18 0 empty;
#X connect 24 0 25 1 empty;
#X connect 24 0 26 0 empty;
#X connect 25 0 24 0 empty;
#X connect 27 0 25 0 empty;
#X connect 28 0 27 0 empty;
#X connect 29 0 30 0 empty;
#X connect 29 0 35 0 empty;
#X connect 30 0 31 0 empty;
#X connect 31 0 33 0 empty;
#X connect 31 0 34 0 empty;
#X connect 33 0 31 1 empty;
#X connect 34 0 32 0 empty;
#X connect 35 0 31 0 empty;
#X connect 35 1 36 0 empty;
#X connect 36 0 31 1 empty;
