#N canvas 827 239 527 327 12;
#X obj 179 410 line;
#X obj 460 410 snapshot~;
#X floatatom 460 436 5 0 0 0 - - - 0;
#X obj 475 377 metro 100;
#X obj 459 299 vline~;
#X obj 475 342 loadbang;
#X obj 179 199 bng 25 250 50 0 empty empty empty 17 7 0 10 #191919 #ffffff #ffffff;
#X obj 239 259 delay 1000;
#X msg 179 259 1 1000;
#X floatatom 179 439 5 0 0 0 empty - - 12;
#X msg 239 291 0.7 1000;
#X obj 319 259 delay 2000;
#X msg 319 288 0 1000;
#X obj 459 199 bng 25 250 50 0 empty empty empty 17 7 0 10 #191919 #ffffff #ffffff;
#X msg 459 259 1 1000 \, 0.7 1000 1000 \, 0 1000 2000;
#X connect 0 0 9 0 empty;
#X connect 1 0 2 0 empty;
#X connect 3 0 1 0 empty;
#X connect 4 0 1 0 empty;
#X connect 5 0 3 0 empty;
#X connect 6 0 7 0 empty;
#X connect 6 0 8 0 empty;
#X connect 6 0 11 0 empty;
#X connect 7 0 10 0 empty;
#X connect 8 0 0 0 empty;
#X connect 10 0 0 0 empty;
#X connect 11 0 12 0 empty;
#X connect 12 0 0 0 empty;
#X connect 13 0 14 0 empty;
#X connect 14 0 4 0 empty;
