#N canvas 684 0 689 764 12;
#X obj 141 95 osc~ 440;
#X obj 150 236 dac~;
#X floatatom 142 34 5 0 0 0 - - - 0;
#X floatatom 274 70 5 0 0 0 - - - 0;
#X obj 275 102 osc~;
#X obj 271 137 *~ 0.75;
#X obj 274 40 * 2;
#X obj 157 186 *~ 0.25;
#X connect 0 0 7 0;
#X connect 2 0 0 0;
#X connect 2 0 6 0;
#X connect 3 0 4 0;
#X connect 4 0 5 0;
#X connect 5 0 7 0;
#X connect 6 0 3 0;
#X connect 7 0 1 0;
#X connect 7 0 1 1;
