#N canvas 547 63 538 623 12;
#X obj 61 227 output~;
#X obj 61 191 +~;
#X obj 61 123 +~;
#X obj 186 118 +~;
#X obj 186 60 osc~ 440;
#X obj 61 60 osc~ 330;
#X obj 79 91 osc~ 330.2;
#X obj 204 91 osc~ 440.33;
#X obj 321 115 +~;
#X obj 321 60 osc~ 587;
#X obj 339 91 osc~ 587.25;
#X obj 61 160 +~;
#X text 118 14 Beating between closely tuned sinusoids;
#X connect 1 0 0 0 empty;
#X connect 1 0 0 1 empty;
#X connect 2 0 11 0 empty;
#X connect 3 0 11 1 empty;
#X connect 4 0 3 0 empty;
#X connect 5 0 2 0 empty;
#X connect 6 0 2 1 empty;
#X connect 7 0 3 1 empty;
#X connect 8 0 1 1 empty;
#X connect 9 0 8 0 empty;
#X connect 10 0 8 1 empty;
#X connect 11 0 1 0 empty;
