#N canvas 733 172 450 300 clave 1;
#X obj 636 651 t b f;
#X obj 636 701 sel 0;
#X msg 636 730 1300;
#X floatatom 636 759 5 0 0 0 empty - - 12;
#X obj 636 786 osc~;
#X obj 636 943 *~;
#X obj 636 972 dac~;
#X msg 686 820 0.6 5 \, 0 200 10;
#X obj 686 849 vline~;
#X obj 686 878 pow~ 4;
#X msg 692 730 900;
#X obj 635 615 inlet;
#X connect 0 0 7 0;
#X connect 0 1 1 0;
#X connect 1 0 2 0;
#X connect 1 1 10 0;
#X connect 2 0 3 0;
#X connect 3 0 4 0;
#X connect 4 0 5 0;
#X connect 5 0 6 0;
#X connect 7 0 8 0;
#X connect 8 0 9 0;
#X connect 9 0 5 1;
#X connect 10 0 3 0;
#X connect 11 0 0 0;
