#N canvas 827 239 527 327 12;
#X obj 183 180 phasor~;
#X obj 183 215 -~ 0.5;
#X msg 183 150 550;
#X obj 325 180 phasor~;
#X obj 325 215 -~ 0.5;
#X msg 325 150 830;
#X obj 325 248 bp~ 830 0.4;
#X obj 258 379 *~;
#X obj 509 193 vline~;
#X obj 509 222 pow~ 6;
#X msg 511 162 1 4 \, 0 250 4;
#X obj 376 62 bng 25 250 50 0 empty empty empty 17 7 0 10 #191919 #e1e1e1 #e1e1e1;
#X obj 620 193 vline~;
#X msg 622 162 1 4 \, 0 250 4;
#X obj 620 222 pow~ 3;
#X obj 376 31 inlet;
#X obj 258 457 dac~;
#X obj 258 413 *~ 0.3;
#X connect 0 0 1 0;
#X connect 1 0 7 0;
#X connect 2 0 0 0;
#X connect 3 0 4 0;
#X connect 4 0 6 0;
#X connect 5 0 3 0;
#X connect 6 0 7 0;
#X connect 7 0 17 0;
#X connect 8 0 9 0;
#X connect 9 0 7 1;
#X connect 10 0 8 0;
#X connect 11 0 2 0;
#X connect 11 0 5 0;
#X connect 11 0 10 0;
#X connect 11 0 13 0;
#X connect 12 0 14 0;
#X connect 13 0 12 0;
#X connect 14 0 7 1;
#X connect 15 0 11 0;
#X connect 17 0 16 0;
#X connect 17 0 16 1;
