#N canvas 733 172 450 300 12;
#X obj 367 224 f;
#X obj 418 224 + 1;
#X obj 325 194 == 0;
#X obj 367 255 mod 16;
#X obj 367 380 + 0;
#X obj 367 428 *;
#X obj 367 467 mod 16;
#X obj 367 504 <;
#X obj 367 535 sel 1;
#X obj 446 565 bng 25 250 50 0 empty empty rests 30 10 0 15 #191919 #e1e1e1 #e1e1e1;
#X obj 540 570 f;
#X obj 563 338 t f f;
#X floatatom 540 603 5 0 0 1 current\ step - - 12;
#X obj 367 565 bng 25 250 50 0 empty empty beats 30 10 0 15 #191919 #e1e1e1 #e1e1e1;
#X obj 251 153 tgl 25 0 empty empty Toggle\ to\ turn\ on\ and\ off\ metro 30 15 0 15 #191919 #e1e1e1 #e1e1e1 0 1;
#X obj 367 124 inlet;
#X obj 454 72 inlet;
#X floatatom 581 130 5 0 0 1 amount\ of\ beats\ to\ trigger\ (density) - - 12;
#X obj 446 632 outlet;
#X obj 540 632 outlet;
#X obj 581 100 inlet;
#X obj 528 100 inlet;
#X floatatom 528 129 5 0 0 0 empty - - 12;
#X obj 367 195 metro 1 120 permin;
#X floatatom 454 108 5 0 0 0 empty - - 12;
#X msg 454 135 tempo \$1 permin;
#X obj 367 603 click~;
#X obj 368 641 outlet~;
#X connect 0 0 1 0;
#X connect 0 0 3 0;
#X connect 1 0 0 1;
#X connect 2 0 0 1;
#X connect 3 0 11 0;
#X connect 4 0 5 0;
#X connect 5 0 6 0;
#X connect 6 0 7 0;
#X connect 7 0 8 0;
#X connect 8 0 13 0;
#X connect 8 1 9 0;
#X connect 9 0 18 0;
#X connect 10 0 12 0;
#X connect 11 0 4 0;
#X connect 11 1 10 1;
#X connect 12 0 19 0;
#X connect 13 0 10 0;
#X connect 13 0 26 0;
#X connect 14 0 2 0;
#X connect 14 0 23 0;
#X connect 15 0 14 0;
#X connect 16 0 24 0;
#X connect 17 0 5 1;
#X connect 17 0 7 1;
#X connect 20 0 17 0;
#X connect 21 0 22 0;
#X connect 22 0 3 1;
#X connect 22 0 6 1;
#X connect 23 0 0 0;
#X connect 24 0 25 0;
#X connect 25 0 23 0;
#X connect 26 0 27 0;
