#N canvas 827 239 527 327 12;
#X obj 425 230 tgl 25 0 empty empty Toggle\ random\ generated\ note\ amounts\ (density) 30 15 0 15 #191919 #e1e1e1 #e1e1e1 0 1;
#X obj 311 164 metro 200;
#X obj 311 193 f;
#X obj 362 193 + 1;
#X obj 269 163 == 0;
#X obj 311 224 mod 16;
#X obj 311 349 + 0;
#X obj 311 397 *;
#X floatatom 419 363 5 0 16 1 Adjust\ amount\ of\ beats\ to\ trigger\ here notes - 12;
#X obj 311 436 mod 16;
#X obj 311 473 <;
#X obj 311 504 sel 1;
#X obj 390 534 bng 25 250 50 0 empty empty rests 30 10 0 15 #191919 #e1e1e1 #e1e1e1;
#X obj 258 567 f;
#X obj 258 308 t f f;
#X floatatom 311 596 5 0 0 1 current\ step - - 12;
#X obj 311 534 bng 25 250 50 0 empty empty beats 30 10 0 15 #191919 #e1e1e1 #e1e1e1;
#X obj 598 470 select 0;
#X obj 598 561 s notes;
#X obj 598 501 random 10;
#X obj 598 436 r random;
#X obj 404 294 s random;
#X obj 404 265 spigot;
#X obj 598 530 + 6;
#X obj 311 131 tgl 25 0 empty empty Toggle\ to\ turn\ on\ and\ off\ metro 30 15 0 15 #191919 #e1e1e1 #e1e1e1 0 1;
#N canvas 733 172 450 300 clave 1;
#X obj 636 651 t b f;
#X obj 636 701 sel 0;
#X msg 636 730 1300;
#X floatatom 636 759 5 0 0 0 empty - - 12;
#X obj 636 786 osc~;
#X obj 636 943 *~;
#X obj 636 972 dac~;
#X msg 686 820 0.6 5 \, 0 200 10;
#X obj 686 849 vline~;
#X obj 686 878 pow~ 4;
#X msg 692 730 900;
#X obj 635 615 inlet;
#X connect 0 0 7 0;
#X connect 0 1 1 0;
#X connect 1 0 2 0;
#X connect 1 1 10 0;
#X connect 2 0 3 0;
#X connect 3 0 4 0;
#X connect 4 0 5 0;
#X connect 5 0 6 0;
#X connect 7 0 8 0;
#X connect 8 0 9 0;
#X connect 9 0 5 1;
#X connect 10 0 3 0;
#X connect 11 0 0 0;
#X restore 311 652 pd clave;
#X text 380 644 subpatch creating clave sound;
#X text 380 666 ctrl/cmd to open and take a look;
#X text 685 476 choose a random number between 0-10;
#X text 685 493 add 6 so that we now get random numbers 6-16;
#X connect 0 0 22 1;
#X connect 1 0 2 0;
#X connect 2 0 3 0;
#X connect 2 0 5 0;
#X connect 3 0 2 1;
#X connect 4 0 2 1;
#X connect 5 0 14 0;
#X connect 5 0 22 0;
#X connect 6 0 7 0;
#X connect 7 0 9 0;
#X connect 8 0 10 1 32.................u....L7++++K....C++++2E....;
#X connect 8 0 7 1 32.................I....v5+++eB....r9+++GA....;
#X connect 9 0 10 0;
#X connect 10 0 11 0;
#X connect 11 0 16 0;
#X connect 11 1 12 0;
#X connect 13 0 15 0;
#X connect 14 0 6 0;
#X connect 14 1 13 1;
#X connect 15 0 25 0;
#X connect 16 0 13 0;
#X connect 17 0 19 0;
#X connect 19 0 23 0;
#X connect 20 0 17 0;
#X connect 22 0 21 0;
#X connect 23 0 18 0;
#X connect 24 0 1 0;
