#N canvas 547 63 538 623 12;
#X obj 89 674 output~;
#X obj 89 575 +~;
#X obj 89 507 +~;
#X obj 89 473 +~;
#X obj 89 544 +~;
#X obj 99 113 vsl 17 128 20 1300 0 0 empty empty empty 0 -9 0 10 #191919 #ffffff #ffffff 0 1;
#X obj 170 252 * 2;
#X obj 89 617 *~;
#X obj 508 435 vline~;
#X obj 89 435 osc~;
#X obj 170 435 osc~;
#X obj 249 435 osc~;
#X obj 327 435 osc~;
#X obj 409 435 osc~;
#X floatatom 170 399 9 0 0 0 - - - 16;
#X floatatom 249 399 9 0 0 0 - - - 16;
#X floatatom 328 399 10 0 0 0 - - - 16;
#X floatatom 409 399 10 0 0 0 - - - 16;
#X msg 642 366 0.8 1000 \, 0 1000 2000;
#X msg 580 366 0 1000;
#X msg 507 366 0.8 1000;
#X obj 249 293 * 2;
#X obj 328 336 * 2;
#X obj 409 366 * 2;
#X obj 431 176 spectrograph~;
#X obj 133 617 throw~ spectrograph;
#X obj 431 149 catch~ spectrograph;
#X connect 1 0 7 0 empty;
#X connect 1 0 25 0 empty;
#X connect 2 0 4 0 empty;
#X connect 3 0 2 0 empty;
#X connect 4 0 1 0 empty;
#X connect 5 0 6 0 empty;
#X connect 5 0 9 0 empty;
#X connect 6 0 14 0 empty;
#X connect 6 0 21 0 empty;
#X connect 7 0 0 0 empty;
#X connect 7 0 0 1 empty;
#X connect 8 0 7 1 empty;
#X connect 9 0 3 0 empty;
#X connect 10 0 3 1 empty;
#X connect 11 0 2 1 empty;
#X connect 12 0 4 1 empty;
#X connect 13 0 1 1 empty;
#X connect 14 0 10 0 empty;
#X connect 15 0 11 0 empty;
#X connect 16 0 12 0 empty;
#X connect 17 0 13 0 empty;
#X connect 18 0 8 0 empty;
#X connect 19 0 8 0 empty;
#X connect 20 0 8 0 empty;
#X connect 21 0 15 0 empty;
#X connect 21 0 22 0 empty;
#X connect 22 0 16 0 empty;
#X connect 22 0 23 0 empty;
#X connect 23 0 17 0 empty;
#X connect 26 0 24 0 empty;
