#N canvas 827 239 527 327 12;
#N canvas 0 0 450 250 (subpatch) 0;
#X array \$0-steps 16 float 2;
#X coords 0 0 16 6 200 140 1;
#X restore 408 112 graph;
#X obj 52 158 tgl 25 0 empty empty empty 17 7 0 10 #191919 #ffffff #ffffff 0 1;
#X obj 52 349 i 0;
#X floatatom 52 407 5 0 0 0 empty - - 12;
#X obj 105 351 + 1;
#X obj 52 378 mod 16;
#X obj 195 267 t b b;
#X msg 211 300 0;
#X text -173 162 toggles on and off and resets counter;
#X text 239 266 same as "trigger bang bang";
#X obj 52 209 metro 0.25 180 permin;
#X floatatom 103 112 13 0 0 0 empty - - 24;
#X msg 97 170 tempo \$1 permin;
#X obj 52 437 hradio 20 1 0 16 empty empty empty 0 -8 0 10 #191919 #e1e1e1 #e1e1e1 0;
#X obj 52 466 array get \$0-steps;
#X floatatom 52 495 5 0 0 0 empty - - 12;
#X obj 52 522 + 0.5;
#X obj 52 551 i;
#X floatatom 52 580 5 0 0 0 empty - - 12;
#X obj 408 458 array set \$0-steps;
#X obj 52 959 noteout;
#X obj 54 788 select 0 1 2 3 4 5 6;
#X msg -85 861 0;
#X msg 46 861 1;
#X msg 172 861 2;
#X msg 298 861 3;
#X msg 424 861 4;
#X obj -85 894 makenote 100 100;
#X obj 46 894 makenote 100 100;
#X obj 172 894 makenote 100 100;
#X obj 298 894 makenote 100 100;
#X obj 424 894 makenote 100 100;
#X msg 408 429 4 10 4 10 5 10 2 1 2 1 4 0 5 10 2 1;
#X msg 408 324 4 2 4 2 5 2 4 5 2 5 4 5 5 4 2 5;
#X msg 408 375 0 1 2 2 1 0 2 1 10 10 4 0 1 2 2 2;
#X obj 52 677 spigot;
#X obj 77 645 tgl 25 0 empty empty empty 17 7 0 10 #191919 #e1e1e1 #e1e1e1 0 1;
#X obj 164 650 spigot;
#X obj 189 618 tgl 25 0 empty empty empty 17 7 0 10 #191919 #e1e1e1 #e1e1e1 0 1;
#X obj 164 679 select 0 1 2 3 4 5 6;
#N canvas 0 22 450 300 kick_808 1;
#X obj 314 470 phasor~;
#X obj 314 499 expr~ $v1 > 0.5;
#X obj 314 620 *~;
#N canvas 733 172 450 300 vol_env 0;
#X obj 376 229 vline~;
#X obj 376 261 *~;
#X msg 374 190 0.5 \, 1 5 \, 0.5 60 5 \, 0 \$1 65;
#X obj 373 140 inlet;
#X obj 216 331 outlet~;
#X connect 0 0 1 0;
#X connect 0 0 1 1;
#X connect 1 0 4 0;
#X connect 2 0 0 0;
#X connect 3 0 2 0;
#X restore 492 430 pd vol_env;
#X obj 492 383 f 250;
#X floatatom 515 324 10 0 0 1 decay_ms - - 16;
#N canvas 733 172 450 300 pitch_env 0;
#X obj 376 229 vline~;
#X obj 376 261 *~;
#X obj 373 140 inlet;
#X obj 376 387 outlet~;
#X msg 374 190 1 \, 0.5 5 \, 0 \$1 5;
#X obj 376 292 *~ 80;
#X obj 376 325 +~ 29;
#X obj 376 356 mtof~;
#X connect 0 0 1 0;
#X connect 0 0 1 1;
#X connect 1 0 5 0;
#X connect 2 0 4 0;
#X connect 4 0 0 0;
#X connect 5 0 6 0;
#X connect 6 0 7 0;
#X connect 7 0 3 0;
#X restore 314 389 pd pitch_env;
#X obj 314 441 *~ 1;
#X floatatom 578 404 5 0 0 1 pitch_scale - - 12;
#X obj 327 562 vcf~ 0.5;
#X obj 519 492 *~ 1.5;
#X floatatom 660 472 5 0 0 1 filter_scale - - 12;
#X obj 257 526 noise~;
#X floatatom 752 539 5 0 0 1 sine_scale - - 12;
#X obj 568 586 osc~;
#X obj 568 557 *~ 0.75;
#X obj 519 291 inlet;
#X obj 578 375 inlet;
#X obj 660 441 inlet;
#X obj 752 512 inlet;
#X obj 314 654 outlet~;
#X obj 450 291 inlet;
#X obj 471 335 bng 25 250 50 0 empty empty empty 17 7 0 10 #191919 #e1e1e1 #e1e1e1;
#X connect 0 0 1 0;
#X connect 1 0 9 0;
#X connect 2 0 20 0;
#X connect 3 0 2 1;
#X connect 4 0 3 0;
#X connect 4 0 6 0;
#X connect 5 0 4 0;
#X connect 6 0 7 0;
#X connect 6 0 10 0;
#X connect 7 0 0 0;
#X connect 7 0 15 0;
#X connect 8 0 7 1;
#X connect 9 1 2 0;
#X connect 10 0 9 1;
#X connect 11 0 10 1;
#X connect 12 0 9 0;
#X connect 13 0 15 1;
#X connect 14 0 2 0;
#X connect 15 0 14 0;
#X connect 16 0 5 0;
#X connect 17 0 8 0;
#X connect 18 0 11 0;
#X connect 19 0 13 0;
#X connect 21 0 22 0;
#X connect 22 0 4 0;
#X restore 886 675 pd kick_808;
#X f 60;
#X obj 867 759 out~;
#X floatatom 967 647 5 0 0 1 decay - - 12;
#X floatatom 1050 647 5 0 0 1 pitch_scale - - 12;
#X floatatom 1160 647 5 0 0 1 filter_scale - - 12;
#X floatatom 1268 647 5 0 0 1 sine_scale - - 12;
#X obj 870 614 metro 1000;
#X obj 869 555 tgl 25 0 empty empty empty 17 7 0 10 #191919 #e1e1e1 #e1e1e1 0 1;
#X connect 1 0 10 0;
#X connect 1 0 6 0 32.................N....7H...fC....OB...PE....;
#X connect 2 0 4 0;
#X connect 2 0 5 0;
#X connect 3 0 13 0;
#X connect 4 0 2 1;
#X connect 5 0 3 0;
#X connect 6 0 2 0;
#X connect 6 1 7 0;
#X connect 7 0 2 1;
#X connect 10 0 2 0;
#X connect 11 0 12 0;
#X connect 12 0 10 0;
#X connect 13 0 14 0;
#X connect 14 0 15 0;
#X connect 15 0 16 0;
#X connect 16 0 17 0;
#X connect 17 0 18 0;
#X connect 18 0 35 0;
#X connect 18 0 38 0;
#X connect 21 0 22 0;
#X connect 21 1 23 0;
#X connect 21 2 24 0;
#X connect 21 3 25 0;
#X connect 21 4 26 0;
#X connect 21 4 22 0;
#X connect 21 5 23 0;
#X connect 21 6 24 0;
#X connect 22 0 27 0;
#X connect 23 0 28 0;
#X connect 24 0 29 0;
#X connect 25 0 30 0;
#X connect 26 0 31 0;
#X connect 27 0 20 0;
#X connect 27 1 20 1;
#X connect 28 0 20 0;
#X connect 28 1 20 1;
#X connect 29 0 20 0;
#X connect 29 1 20 1;
#X connect 30 0 20 0;
#X connect 30 1 20 1;
#X connect 31 0 20 0;
#X connect 31 1 20 1;
#X connect 32 0 19 0;
#X connect 33 0 19 0;
#X connect 34 0 19 0;
#X connect 35 0 21 0;
#X connect 36 0 35 1;
#X connect 37 0 39 0;
#X connect 38 0 37 1;
#X connect 40 0 41 0;
#X connect 42 0 40 3;
#X connect 43 0 40 2;
#X connect 44 0 40 1;
#X connect 45 0 40 4;
#X connect 46 0 40 0;
#X connect 47 0 46 0;
