#N canvas 827 239 527 327 12;
#X obj 89 141 hv.pinknoise~;
#X obj 176 314 *~;
#X obj 224 260 hv.vline~;
#X obj 176 478 delwrite~ string 500;
#X msg 224 231 1 20 \, 0 20 20;
#X obj 364 391 lop~ 10000;
#X obj 364 358 *~ 0.99;
#X obj 364 328 delread4~ string;
#X obj 364 208 mtof;
#X msg 332 267 1000;
#X obj 364 300 /;
#X obj 364 237 t b f f f;
#X obj 495 344 * 1;
#X obj 528 168 vsl 17 128 0 10 0 0 empty empty empty 0 -9 0 10 #191919 #e1e1e1 #e1e1e1 0 1;
#X floatatom 523 314 5 0 0 0 empty - - 12;
#X obj 566 574 *~;
#X obj 641 231 vsl 17 128 0 127 0 0 empty empty empty 0 -9 0 10 #191919 #e1e1e1 #e1e1e1 0 1;
#X floatatom 638 368 5 0 0 0 empty - - 12;
#X obj 619 405 * 1;
#X obj 619 434 osc~;
#X obj 619 463 +~ 1;
#X obj 619 492 *~ 0.5;
#X obj 626 684 out~;
#X obj 358 66 metro 200;
#X obj 358 95 random 20;
#X obj 341 17 tgl 25 0 empty empty empty 17 7 0 10 #191919 #e1e1e1 #e1e1e1 0 1;
#X obj 358 124 + 30;
#X connect 0 0 1 0;
#X connect 1 0 3 0;
#X connect 2 0 1 1;
#X connect 4 0 2 0;
#X connect 5 0 3 0;
#X connect 5 0 15 0;
#X connect 6 0 5 0;
#X connect 7 0 6 0;
#X connect 8 0 11 0;
#X connect 9 0 10 0;
#X connect 10 0 7 0;
#X connect 11 0 9 0;
#X connect 11 1 10 1;
#X connect 11 2 12 0;
#X connect 11 3 18 0;
#X connect 12 0 5 1;
#X connect 13 0 14 0;
#X connect 14 0 12 1;
#X connect 15 0 22 0;
#X connect 16 0 17 0;
#X connect 17 0 18 1;
#X connect 18 0 19 0;
#X connect 19 0 20 0;
#X connect 20 0 21 0;
#X connect 21 0 15 1;
#X connect 23 0 24 0;
#X connect 23 0 4 0;
#X connect 24 0 26 0;
#X connect 25 0 23 0;
#X connect 26 0 8 0;
