#N canvas 827 239 527 327 12;
#X obj 216 274 phasor~;
#X obj 216 303 expr~ $v1 > 0.5;
#X obj 216 424 *~;
#N canvas 733 172 450 300 vol_env 0;
#X obj 376 229 vline~;
#X obj 376 261 *~;
#X msg 374 190 0.5 \, 1 5 \, 0.5 60 5 \, 0 \$1 65;
#X obj 373 140 inlet;
#X obj 216 331 outlet~;
#X connect 0 0 1 0;
#X connect 0 0 1 1;
#X connect 1 0 4 0;
#X connect 2 0 0 0;
#X connect 3 0 2 0;
#X restore 394 234 pd vol_env;
#X obj 394 187 f 250;
#X floatatom 476 128 10 0 0 1 decay_ms - - 16;
#N canvas 733 172 450 300 pitch_env 1;
#X obj 376 229 vline~;
#X obj 376 261 *~;
#X obj 373 140 inlet;
#X obj 376 387 outlet~;
#X msg 374 190 1 \, 0.5 5 \, 0 \$1 5;
#X obj 376 292 *~ 80;
#X obj 376 325 +~ 29;
#X obj 376 356 mtof~;
#X connect 0 0 1 0;
#X connect 0 0 1 1;
#X connect 1 0 5 0;
#X connect 2 0 4 0;
#X connect 4 0 0 0;
#X connect 5 0 6 0;
#X connect 6 0 7 0;
#X connect 7 0 3 0;
#X restore 216 193 pd pitch_env;
#X obj 216 245 *~ 1;
#X floatatom 480 208 5 0 0 1 pitch_scale - - 12;
#X obj 229 366 vcf~ 0.5;
#X obj 421 296 *~ 1.5;
#X floatatom 480 276 5 0 0 1 filter_scale - - 12;
#X obj 159 330 noise~;
#X floatatom 502 330 5 0 0 1 sine_scale - - 12;
#X obj 470 390 osc~;
#X obj 470 361 *~ 0.75;
#X obj 480 95 inlet;
#X obj 480 179 inlet;
#X obj 480 245 inlet;
#X obj 502 303 inlet;
#X obj 216 458 outlet~;
#X obj 354 134 inlet;
#X connect 0 0 1 0;
#X connect 1 0 9 0;
#X connect 2 0 20 0;
#X connect 3 0 2 1;
#X connect 4 0 3 0;
#X connect 4 0 6 0;
#X connect 5 0 4 0;
#X connect 6 0 7 0;
#X connect 6 0 10 0;
#X connect 7 0 0 0;
#X connect 7 0 15 0;
#X connect 8 0 7 1;
#X connect 9 1 2 0;
#X connect 10 0 9 1;
#X connect 11 0 10 1;
#X connect 12 0 9 0;
#X connect 13 0 15 1;
#X connect 14 0 2 0;
#X connect 15 0 14 0;
#X connect 16 0 5 0;
#X connect 17 0 8 0;
#X connect 18 0 11 0;
#X connect 19 0 13 0;
#X connect 21 0 4 0;
