#N canvas 827 239 527 327 12;
#X obj 207 161 tgl 25 0 empty empty empty 17 7 0 10 #191919 #ffffff #ffffff 0 1;
#X obj 207 194 metro 1 160 permin;
#X obj 207 223 sequencer 72 - 65 - 68 - 68 65 -- 65 75 73 72 68;
#X obj 207 252 pipe 450;
#X obj 140 358 midiout;
#X msg 98 281 144 \, \$1 \, 120;
#X msg 207 281 128 \$1 0;
#X connect 0 0 1 0 empty;
#X connect 2 0 3 0 empty;
#X connect 2 0 5 0 empty;
#X connect 3 0 6 0 empty;
#X connect 5 0 4 0 empty;
#X connect 6 0 4 0 empty;
