#N canvas 827 239 527 327 12;
#X declare -stdpath ./;
#X obj 491 519 declare -stdpath ./, f 11;
#X obj 373 277 snake~ in 16;
#X obj 373 367 snake~ out 16;
#X obj 373 463 dac~ 1 2 3 4 5 6 7 8 9 10 11 12 13 14 15 16;
#X obj 373 319 clone -d clone-abs-b 16;
#X connect 1 0 4 0;
#X connect 2 0 3 0;
#X connect 2 1 3 1;
#X connect 2 2 3 2;
#X connect 2 3 3 3;
#X connect 2 4 3 4;
#X connect 2 5 3 5;
#X connect 2 6 3 6;
#X connect 2 7 3 7;
#X connect 2 8 3 8;
#X connect 2 9 3 9;
#X connect 2 10 3 10;
#X connect 2 11 3 11;
#X connect 2 12 3 12;
#X connect 2 13 3 13;
#X connect 2 14 3 14;
#X connect 2 15 3 15;
#X connect 4 0 2 0;
