#N canvas 827 239 527 327 12;
#X obj 715 302 oscparse;
#X listbox 707 358 34 0 0 0 - - - 0;
#X obj 715 243 netreceive -u -b;
#X msg 727 216 listen 0;
#X obj 731 273 print OSC-packet;
#X msg 715 188 listen 8888;
#X obj 773 334 print;
#X connect 0 0 1 0 empty;
#X connect 0 0 6 0 empty;
#X connect 2 0 0 0 empty;
#X connect 2 0 4 0 empty;
#X connect 3 0 2 0 empty;
#X connect 5 0 2 0 empty;
