#N canvas 827 239 527 327 12;
#X obj 105 139 mod 4;
#X obj 105 175 hradio 20 1 0 10 empty empty empty 0 -8 0 10 #191919 #e1e1e1 #e1e1e1 0;
#X msg 173 139 number \$1;
#X floatatom 173 75 6 0 0 0 empty - - 12;
#X obj 173 99 i;
#X obj 664 132 tgl 25 0 empty empty empty 17 7 0 10 #191919 #e1e1e1 #e1e1e1 0 1;
#X obj 664 259 bng 25 250 50 0 empty empty empty 17 7 0 10 #191919 #e1e1e1 #e1e1e1;
#X obj 664 295 f;
#X obj 709 295 + 1;
#X msg 699 264 0;
#X obj 664 181 t f b;
#X obj 664 327 s clock;
#X obj 82 111 r clock;
#X msg 709 181 tempo \$1 permin;
#X floatatom 709 123 5 0 0 0 empty - - 12;
#X obj 709 149 i;
#X obj 105 228 + 0;
#X obj 105 276 *;
#X obj 105 315 mod 16;
#X obj 105 352 <;
#X obj 105 383 sel 1;
#X obj 184 413 bng 25 250 50 0 empty empty rests 30 10 0 15 #191919 #e1e1e1 #e1e1e1;
#X obj 105 413 bng 25 250 50 0 empty empty beats 30 10 0 15 #191919 #e1e1e1 #e1e1e1;
#X floatatom 199 285 5 0 0 0 empty - - 12;
#X obj 387 175 mod 4;
#X obj 387 211 hradio 20 1 0 4 empty empty empty 0 -8 0 10 #191919 #e1e1e1 #e1e1e1 0;
#X msg 455 175 number \$1;
#X floatatom 455 99 6 0 0 0 empty - - 12;
#X obj 455 135 i;
#X obj 364 147 r clock;
#X obj 387 264 + 0;
#X obj 387 312 *;
#X obj 387 351 mod 16;
#X obj 387 388 <;
#X obj 387 419 sel 1;
#X obj 466 449 bng 25 250 50 0 empty empty rests 30 10 0 15 #191919 #e1e1e1 #e1e1e1;
#X obj 387 449 bng 25 250 50 0 empty empty beats 30 10 0 15 #191919 #e1e1e1 #e1e1e1;
#X floatatom 481 321 5 0 0 0 empty - - 12;
#X obj 27 485 osc~ 440;
#X obj 81 552 *~;
#X obj 319 552 *~;
#X obj 265 485 osc~ 360;
#X obj 664 228 metro 0.25 120 permin;
#X msg 144 485 0.8 10 \, 0 100 10;
#X msg 382 485 0.8 10 \, 0 10 10;
#X obj 158 703 output~;
#X obj 141 511 hv.vline~;
#X obj 379 511 hv.vline~;
#X connect 0 0 1 0;
#X connect 1 0 16 0;
#X connect 2 0 1 0;
#X connect 3 0 4 0;
#X connect 4 0 0 1;
#X connect 4 0 2 0;
#X connect 4 0 18 1;
#X connect 5 0 10 0;
#X connect 6 0 7 0;
#X connect 7 0 8 0;
#X connect 7 0 11 0;
#X connect 8 0 7 1;
#X connect 9 0 7 1;
#X connect 10 0 42 0;
#X connect 10 1 9 0;
#X connect 12 0 0 0;
#X connect 13 0 42 0;
#X connect 14 0 15 0;
#X connect 15 0 13 0;
#X connect 16 0 17 0;
#X connect 17 0 18 0;
#X connect 18 0 19 0;
#X connect 19 0 20 0;
#X connect 20 0 22 0;
#X connect 20 1 21 0;
#X connect 22 0 43 0;
#X connect 23 0 17 1;
#X connect 23 0 19 1;
#X connect 24 0 25 0;
#X connect 25 0 30 0;
#X connect 26 0 25 0;
#X connect 27 0 28 0;
#X connect 28 0 24 1;
#X connect 28 0 26 0;
#X connect 28 0 32 1;
#X connect 29 0 24 0;
#X connect 30 0 31 0;
#X connect 31 0 32 0;
#X connect 32 0 33 0;
#X connect 33 0 34 0;
#X connect 34 0 36 0;
#X connect 34 1 35 0;
#X connect 36 0 44 0;
#X connect 37 0 31 1;
#X connect 37 0 33 1;
#X connect 38 0 39 0;
#X connect 39 0 45 0;
#X connect 39 0 45 1;
#X connect 40 0 45 1;
#X connect 40 0 45 0;
#X connect 41 0 40 0;
#X connect 42 0 6 0;
#X connect 43 0 46 0;
#X connect 44 0 47 0;
#X connect 46 0 39 1;
#X connect 47 0 40 1;
