#N canvas 733 172 450 300 uzi-like 1;
#X obj 378 232 until;
#X obj 378 270 f;
#X obj 416 263 + 1;
#X obj 471 259 sel 0;
#X obj 381 194 bng 19 250 50 0 empty empty empty 17 7 0 10 #dfdfdf #000000 #000000;
#X obj 416 313 mod 16;
#X obj 381 163 inlet;
#X obj 375 313 bng 25 250 50 0 empty empty empty 17 7 0 10 #191919 #e1e1e1 #e1e1e1;
#X obj 375 353 random 2;
#X floatatom 77 304 5 0 0 0 empty - - 12;
#X floatatom 471 176 5 0 0 0 empty - - 12;
#X obj -303 232 hradio 20 1 0 32 empty empty empty 0 -8 0 10 #191919 #e1e1e1 #e1e1e1 0;
#X obj 246 487 out~;
#X obj 159 90 f;
#X obj 208 90 + 1;
#X obj 159 120 mod 8;
#X obj 244 120 sel 0;
#X obj 157 -61 tgl 25 0 empty empty empty 17 7 0 10 #191919 #e1e1e1 #e1e1e1 0 1;
#X obj 226 337 click~;
#X obj 128 318 sel 1;
#X obj 159 61 metro 100;
#X msg 179 199 number \$1;
#X obj 408 72 table \$0-sequence;
#X obj 375 387 tabwrite \$0-sequence;
#X obj 77 261 tabread \$0-sequence;
#X obj -123 143 sel 0;
#X msg -177 177 set 0;
#X obj 47 521 hv.vline~;
#X obj -10 -248 hv.vline~;
#X obj 350 -40 dac~;
#X obj -123 -257 hv.pinknoise~;
#X obj 365 -355 mtof;
#X obj 365 -326 phasor~;
#X floatatom 367 -392 5 0 0 0 empty - - 12;
#X obj 365 -297 *~ 2;
#X obj 366 -266 -~ 1;
#X obj 483 -386 bng 25 250 50 0 empty empty empty 17 7 0 10 #191919 #e1e1e1 #e1e1e1;
#X obj 618 -236 hv.vline~;
#X obj 532 -173 *~;
#X obj 396 -159 lop~;
#X floatatom 201 -196 5 0 0 0 empty - - 12;
#X obj 201 -169 mtof;
#X obj 201 -140 osc~;
#X obj 201 -108 *~;
#X obj 442 -197 hv.vline~;
#X msg 569 -279 1 3200 \, 0 10 3200;
#X msg 451 -248 50 \, 600 3200;
#X obj 289 -127 hv.vline~;
#X msg 291 -159 1 \, 0 200;
#X obj -289 -324 *~;
#X obj -198 -359 hv.vline~;
#X obj -264 -274 *~ 0.6;
#X msg -186 -403 1 \, 0 10;
#X obj -348 -394 hv.pinknoise~;
#X obj -10 -307 random 4000;
#X obj -10 -278 + 1000;
#X obj -48 -209 lop~;
#X obj -23 -152 *~;
#X obj 21 -186 hv.vline~;
#X msg 72 -218 1 \, 0 100;
#X obj 51 -363 bng 25 250 50 0 empty empty empty 17 7 0 10 #191919 #e1e1e1 #e1e1e1;
#X obj -129 -77 /;
#X msg -159 -114 1000;
#X obj -125 -151 t b f;
#X floatatom -128 -36 11 0 0 0 empty - - 12;
#X floatatom -125 -185 5 0 0 0 empty - - 12;
#X connect 0 0 1 0;
#X connect 1 0 2 0;
#X connect 1 0 7 0;
#X connect 1 0 23 1;
#X connect 2 0 5 0;
#X connect 3 0 0 1;
#X connect 4 0 0 0;
#X connect 5 0 3 0;
#X connect 5 0 1 1;
#X connect 6 0 4 0;
#X connect 7 0 8 0;
#X connect 8 0 23 0;
#X connect 9 0 19 0;
#X connect 10 0 5 1;
#X connect 10 0 21 0;
#X connect 10 0 15 1;
#X connect 11 0 24 0;
#X connect 13 0 14 0;
#X connect 13 0 15 0;
#X connect 14 0 13 1;
#X connect 15 0 16 0;
#X connect 15 0 11 0;
#X connect 16 0 4 0;
#X connect 17 0 20 0;
#X connect 17 0 3 0;
#X connect 17 0 25 0;
#X connect 18 0 12 0;
#X connect 18 0 12 1;
#X connect 19 0 18 0;
#X connect 20 0 13 0;
#X connect 21 0 11 0;
#X connect 24 0 9 0;
#X connect 25 0 26 0;
#X connect 26 0 11 0;
#X connect 28 0 56 1;
#X connect 30 0 56 0;
#X connect 31 0 32 0;
#X connect 32 0 34 0;
#X connect 33 0 31 0;
#X connect 34 0 35 0;
#X connect 35 0 39 0;
#X connect 36 0 46 0;
#X connect 36 0 45 0;
#X connect 37 0 38 1;
#X connect 38 0 29 1;
#X connect 39 0 38 0;
#X connect 40 0 41 0;
#X connect 41 0 42 0;
#X connect 42 0 43 0;
#X connect 43 0 29 0;
#X connect 44 0 39 1;
#X connect 45 0 37 0;
#X connect 46 0 44 0;
#X connect 47 0 43 1;
#X connect 48 0 47 0;
#X connect 49 0 51 0;
#X connect 50 0 49 1;
#X connect 51 0 29 1;
#X connect 52 0 50 0;
#X connect 53 0 49 0;
#X connect 54 0 55 0;
#X connect 55 0 28 0;
#X connect 56 0 57 0;
#X connect 57 0 29 0;
#X connect 58 0 57 1;
#X connect 59 0 58 0;
#X connect 60 0 54 0;
#X connect 60 0 59 0;
#X connect 61 0 64 0;
#X connect 62 0 61 0;
#X connect 63 0 62 0;
#X connect 63 1 61 1;
#X connect 65 0 63 0;
