#N canvas 827 239 527 327 12;
#X obj 111 208 expr (($f1-$f2)*($f5-$f4)/($f3-$f2))+$f4;
#X obj 99 337 outlet;
#X obj 99 179 inlet;
#X obj 159 179 inlet;
#X obj 219 179 inlet;
#X obj 279 179 inlet;
#X obj 339 179 inlet;
#X text 130 121 Range Normalisation / Scaling Expr;
#X text 97 158 input;
#X text 98 362 output;
#X text 156 162 old min;
#X text 215 160 old max;
#X text 272 160 new min;
#X text 338 160 new max;
#X obj 99 291 clip;
#X connect 0 0 14 0;
#X connect 2 0 0 0;
#X connect 3 0 0 1;
#X connect 4 0 0 2;
#X connect 5 0 0 3;
#X connect 5 0 14 1;
#X connect 6 0 0 4;
#X connect 6 0 14 2;
#X connect 14 0 1 0;
