#N canvas 827 239 527 327 12;
#X obj 174 461 gate;
#X obj 215 461 gate;
#X obj 257 461 gate;
#X obj 295 461 gate;
#X obj 337 461 gate;
#X obj 379 461 gate;
#X obj 416 461 gate;
#X obj 457 461 gate;
#X obj 498 461 gate;
#X obj 539 461 gate;
#X obj 579 461 gate;
#X obj 620 461 gate;
#X obj 663 461 gate;
#X obj 706 461 gate;
#X obj 750 461 gate;
#X obj 793 461 gate;
#X obj 171 416 tgl 25 0 empty empty empty 17 7 0 10 #191919 #ffffff #ffffff 0 1;
#X obj 212 416 tgl 25 0 empty empty empty 17 7 0 10 #191919 #ffffff #ffffff 0 1;
#X obj 254 416 tgl 25 0 empty empty empty 17 7 0 10 #191919 #ffffff #ffffff 0 1;
#X obj 292 416 tgl 25 0 empty empty empty 17 7 0 10 #191919 #ffffff #ffffff 0 1;
#X obj 335 416 tgl 25 0 empty empty empty 17 7 0 10 #191919 #ffffff #ffffff 0 1;
#X obj 376 416 tgl 25 0 empty empty empty 17 7 0 10 #191919 #ffffff #ffffff 0 1;
#X obj 413 416 tgl 25 0 empty empty empty 17 7 0 10 #191919 #ffffff #ffffff 0 1;
#X obj 455 416 tgl 25 0 empty empty empty 17 7 0 10 #191919 #ffffff #ffffff 0 1;
#X obj 495 416 tgl 25 0 empty empty empty 17 7 0 10 #191919 #ffffff #ffffff 0 1;
#X obj 535 416 tgl 25 0 empty empty empty 17 7 0 10 #191919 #ffffff #ffffff 0 1;
#X obj 576 416 tgl 25 0 empty empty empty 17 7 0 10 #191919 #ffffff #ffffff 0 1;
#X obj 617 416 tgl 25 0 empty empty empty 17 7 0 10 #191919 #ffffff #ffffff 0 1;
#X obj 660 416 tgl 25 0 empty empty empty 17 7 0 10 #191919 #ffffff #ffffff 0 1;
#X obj 703 416 tgl 25 0 empty empty empty 17 7 0 10 #191919 #ffffff #ffffff 0 1;
#X obj 747 416 tgl 25 0 empty empty empty 17 7 0 10 #191919 #ffffff #ffffff 0 1;
#X obj 790 416 tgl 25 0 empty empty empty 17 7 0 10 #191919 #ffffff #ffffff 0 1;
#X obj 174 501 bng 25 250 50 0 empty empty empty 17 7 0 10 #191919 #ffffff #ffffff;
#X obj 215 501 bng 25 250 50 0 empty empty empty 17 7 0 10 #191919 #ffffff #ffffff;
#X obj 257 501 bng 25 250 50 0 empty empty empty 17 7 0 10 #191919 #ffffff #ffffff;
#X obj 296 502 bng 25 250 50 0 empty empty empty 17 7 0 10 #191919 #ffffff #ffffff;
#X obj 347 501 bng 25 250 50 0 empty empty empty 17 7 0 10 #191919 #ffffff #ffffff;
#X obj 387 498 bng 25 250 50 0 empty empty empty 17 7 0 10 #191919 #ffffff #ffffff;
#X obj 418 500 bng 25 250 50 0 empty empty empty 17 7 0 10 #191919 #ffffff #ffffff;
#X obj 465 495 bng 25 250 50 0 empty empty empty 17 7 0 10 #191919 #ffffff #ffffff;
#X obj 502 503 bng 25 250 50 0 empty empty empty 17 7 0 10 #191919 #ffffff #ffffff;
#X obj 548 504 bng 25 250 50 0 empty empty empty 17 7 0 10 #191919 #ffffff #ffffff;
#X obj 588 500 bng 25 250 50 0 empty empty empty 17 7 0 10 #191919 #ffffff #ffffff;
#X obj 635 501 bng 25 250 50 0 empty empty empty 17 7 0 10 #191919 #ffffff #ffffff;
#X obj 671 501 bng 25 250 50 0 empty empty empty 17 7 0 10 #191919 #ffffff #ffffff;
#X obj 717 501 bng 25 250 50 0 empty empty empty 17 7 0 10 #191919 #ffffff #ffffff;
#X obj 760 500 bng 25 250 50 0 empty empty empty 17 7 0 10 #191919 #ffffff #ffffff;
#X obj 801 499 bng 25 250 50 0 empty empty empty 17 7 0 10 #191919 #ffffff #ffffff;
#X obj 194 702 else/out~;
#X floatatom 189 262 4 0 0 0 - - - 0;
#X obj 189 236 + 1;
#X obj 189 210 float;
#X obj 189 154 trigger bang bang;
#X msg 446 183 0;
#X msg 139 120 stop;
#X obj 189 118 bng 25 250 50 0 empty empty empty 17 7 0 10 #191919 #ffffff #ffffff;
#X obj 189 647 *~;
#X obj 318 628 vline~;
#X msg 312 594 0.5 \, 1 5 \, 0.5 60 5 \, 0 250 65;
#X obj 154 599 osc~ 55;
#X obj 354 183 select 16;
#X obj 186 372 select 1 2 3 4 5 6 7 8 9 10 11 12 13 14 15 16, f 98;
#X obj 894 466 gate;
#X obj 935 466 gate;
#X obj 977 466 gate;
#X obj 1015 466 gate;
#X obj 1057 466 gate;
#X obj 1099 466 gate;
#X obj 1136 466 gate;
#X obj 1177 466 gate;
#X obj 1218 466 gate;
#X obj 1259 466 gate;
#X obj 1299 466 gate;
#X obj 1340 466 gate;
#X obj 1383 466 gate;
#X obj 1426 466 gate;
#X obj 1470 466 gate;
#X obj 1513 466 gate;
#X obj 891 421 tgl 25 0 empty empty empty 17 7 0 10 #191919 #ffffff #ffffff 0 1;
#X obj 932 421 tgl 25 0 empty empty empty 17 7 0 10 #191919 #ffffff #ffffff 0 1;
#X obj 974 421 tgl 25 0 empty empty empty 17 7 0 10 #191919 #ffffff #ffffff 0 1;
#X obj 1012 421 tgl 25 0 empty empty empty 17 7 0 10 #191919 #ffffff #ffffff 0 1;
#X obj 1055 421 tgl 25 0 empty empty empty 17 7 0 10 #191919 #ffffff #ffffff 0 1;
#X obj 1096 421 tgl 25 0 empty empty empty 17 7 0 10 #191919 #ffffff #ffffff 0 1;
#X obj 1133 421 tgl 25 0 empty empty empty 17 7 0 10 #191919 #ffffff #ffffff 0 1;
#X obj 1175 421 tgl 25 0 empty empty empty 17 7 0 10 #191919 #ffffff #ffffff 0 1;
#X obj 1215 421 tgl 25 0 empty empty empty 17 7 0 10 #191919 #ffffff #ffffff 0 1;
#X obj 1255 421 tgl 25 0 empty empty empty 17 7 0 10 #191919 #ffffff #ffffff 0 1;
#X obj 1296 421 tgl 25 0 empty empty empty 17 7 0 10 #191919 #ffffff #ffffff 0 1;
#X obj 1337 421 tgl 25 0 empty empty empty 17 7 0 10 #191919 #ffffff #ffffff 0 1;
#X obj 1380 421 tgl 25 0 empty empty empty 17 7 0 10 #191919 #ffffff #ffffff 0 1;
#X obj 1423 421 tgl 25 0 empty empty empty 17 7 0 10 #191919 #ffffff #ffffff 0 1;
#X obj 1467 421 tgl 25 0 empty empty empty 17 7 0 10 #191919 #ffffff #ffffff 0 1;
#X obj 1510 421 tgl 25 0 empty empty empty 17 7 0 10 #191919 #ffffff #ffffff 0 1;
#X obj 894 506 bng 25 250 50 0 empty empty empty 17 7 0 10 #191919 #ffffff #ffffff;
#X obj 935 506 bng 25 250 50 0 empty empty empty 17 7 0 10 #191919 #ffffff #ffffff;
#X obj 977 506 bng 25 250 50 0 empty empty empty 17 7 0 10 #191919 #ffffff #ffffff;
#X obj 1016 507 bng 25 250 50 0 empty empty empty 17 7 0 10 #191919 #ffffff #ffffff;
#X obj 1067 506 bng 25 250 50 0 empty empty empty 17 7 0 10 #191919 #ffffff #ffffff;
#X obj 1107 503 bng 25 250 50 0 empty empty empty 17 7 0 10 #191919 #ffffff #ffffff;
#X obj 1138 505 bng 25 250 50 0 empty empty empty 17 7 0 10 #191919 #ffffff #ffffff;
#X obj 1185 500 bng 25 250 50 0 empty empty empty 17 7 0 10 #191919 #ffffff #ffffff;
#X obj 1222 508 bng 25 250 50 0 empty empty empty 17 7 0 10 #191919 #ffffff #ffffff;
#X obj 1268 509 bng 25 250 50 0 empty empty empty 17 7 0 10 #191919 #ffffff #ffffff;
#X obj 1308 505 bng 25 250 50 0 empty empty empty 17 7 0 10 #191919 #ffffff #ffffff;
#X obj 1355 506 bng 25 250 50 0 empty empty empty 17 7 0 10 #191919 #ffffff #ffffff;
#X obj 1391 506 bng 25 250 50 0 empty empty empty 17 7 0 10 #191919 #ffffff #ffffff;
#X obj 1437 506 bng 25 250 50 0 empty empty empty 17 7 0 10 #191919 #ffffff #ffffff;
#X obj 1480 505 bng 25 250 50 0 empty empty empty 17 7 0 10 #191919 #ffffff #ffffff;
#X obj 1521 504 bng 25 250 50 0 empty empty empty 17 7 0 10 #191919 #ffffff #ffffff;
#X obj 906 377 select 1 2 3 4 5 6 7 8 9 10 11 12 13 14 15 16, f 98;
#X obj 874 604 noise~;
#X obj 920 708 *~;
#X obj 1016 662 vline~;
#X msg 1032 599 0.2 \, 1 5 \, 0.2 100 \, 0 260;
#X obj 189 183 metro 1 180 permin;
#X connect 0 0 32 0 empty;
#X connect 1 0 33 0 empty;
#X connect 2 0 34 0 empty;
#X connect 3 0 35 0 empty;
#X connect 4 0 36 0 empty;
#X connect 5 0 37 0 empty;
#X connect 6 0 38 0 empty;
#X connect 7 0 39 0 empty;
#X connect 8 0 40 0 empty;
#X connect 9 0 41 0 empty;
#X connect 10 0 42 0 empty;
#X connect 11 0 43 0 empty;
#X connect 12 0 44 0 empty;
#X connect 13 0 45 0 empty;
#X connect 14 0 46 0 empty;
#X connect 15 0 47 0 empty;
#X connect 16 0 0 0 empty;
#X connect 17 0 1 0 empty;
#X connect 18 0 2 0 empty;
#X connect 19 0 3 0 empty;
#X connect 20 0 4 0 empty;
#X connect 21 0 5 0 empty;
#X connect 22 0 6 0 empty;
#X connect 23 0 7 0 empty;
#X connect 24 0 8 0 empty;
#X connect 25 0 9 0 empty;
#X connect 26 0 10 0 empty;
#X connect 27 0 11 0 empty;
#X connect 28 0 12 0 empty;
#X connect 29 0 13 0 empty;
#X connect 30 0 14 0 empty;
#X connect 31 0 15 0 empty;
#X connect 32 0 58 0 empty;
#X connect 33 0 58 0 empty;
#X connect 34 0 58 0 empty;
#X connect 35 0 58 0 empty;
#X connect 36 0 58 0 empty;
#X connect 37 0 58 0 empty;
#X connect 38 0 58 0 empty;
#X connect 39 0 58 0 empty;
#X connect 40 0 58 0 empty;
#X connect 41 0 58 0 empty;
#X connect 42 0 58 0 empty;
#X connect 43 0 58 0 empty;
#X connect 44 0 58 0 empty;
#X connect 45 0 58 0 empty;
#X connect 46 0 58 0 empty;
#X connect 47 0 58 0 empty;
#X connect 49 0 61 0 empty;
#X connect 49 0 110 0 empty;
#X connect 50 0 49 0 empty;
#X connect 50 0 51 1 empty;
#X connect 50 0 60 0 empty;
#X connect 51 0 50 0 empty;
#X connect 52 0 115 0 empty;
#X connect 52 1 53 0 empty;
#X connect 53 0 51 1 empty;
#X connect 54 0 115 0 empty;
#X connect 55 0 52 0 empty;
#X connect 56 0 48 0 empty;
#X connect 57 0 56 1 empty;
#X connect 58 0 57 0 empty;
#X connect 59 0 56 0 empty;
#X connect 60 0 53 0 empty;
#X connect 61 0 0 1 empty;
#X connect 61 1 1 1 empty;
#X connect 61 2 2 1 empty;
#X connect 61 3 3 1 empty;
#X connect 61 4 4 1 empty;
#X connect 61 5 5 1 empty;
#X connect 61 6 6 1 empty;
#X connect 61 7 7 1 empty;
#X connect 61 8 8 1 empty;
#X connect 61 9 9 1 empty;
#X connect 61 10 10 1 empty;
#X connect 61 11 11 1 empty;
#X connect 61 12 12 1 empty;
#X connect 61 13 13 1 empty;
#X connect 61 14 14 1 empty;
#X connect 61 15 15 1 empty;
#X connect 62 0 94 0 empty;
#X connect 63 0 95 0 empty;
#X connect 64 0 96 0 empty;
#X connect 65 0 97 0 empty;
#X connect 66 0 98 0 empty;
#X connect 67 0 99 0 empty;
#X connect 68 0 100 0 empty;
#X connect 69 0 101 0 empty;
#X connect 70 0 102 0 empty;
#X connect 71 0 103 0 empty;
#X connect 72 0 104 0 empty;
#X connect 73 0 105 0 empty;
#X connect 74 0 106 0 empty;
#X connect 75 0 107 0 empty;
#X connect 76 0 108 0 empty;
#X connect 77 0 109 0 empty;
#X connect 78 0 62 0 empty;
#X connect 79 0 63 0 empty;
#X connect 80 0 64 0 empty;
#X connect 81 0 65 0 empty;
#X connect 82 0 66 0 empty;
#X connect 83 0 67 0 empty;
#X connect 84 0 68 0 empty;
#X connect 85 0 69 0 empty;
#X connect 86 0 70 0 empty;
#X connect 87 0 71 0 empty;
#X connect 88 0 72 0 empty;
#X connect 89 0 73 0 empty;
#X connect 90 0 74 0 empty;
#X connect 91 0 75 0 empty;
#X connect 92 0 76 0 empty;
#X connect 93 0 77 0 empty;
#X connect 94 0 114 0 empty;
#X connect 95 0 114 0 empty;
#X connect 96 0 114 0 empty;
#X connect 97 0 114 0 empty;
#X connect 98 0 114 0 empty;
#X connect 99 0 114 0 empty;
#X connect 100 0 114 0 empty;
#X connect 101 0 114 0 empty;
#X connect 102 0 114 0 empty;
#X connect 103 0 114 0 empty;
#X connect 104 0 114 0 empty;
#X connect 105 0 114 0 empty;
#X connect 106 0 114 0 empty;
#X connect 107 0 114 0 empty;
#X connect 108 0 114 0 empty;
#X connect 109 0 114 0 empty;
#X connect 110 0 62 1 empty;
#X connect 110 1 63 1 empty;
#X connect 110 2 64 1 empty;
#X connect 110 3 65 1 empty;
#X connect 110 4 66 1 empty;
#X connect 110 5 67 1 empty;
#X connect 110 6 68 1 empty;
#X connect 110 7 69 1 empty;
#X connect 110 8 70 1 empty;
#X connect 110 9 71 1 empty;
#X connect 110 10 72 1 empty;
#X connect 110 11 73 1 empty;
#X connect 110 12 74 1 empty;
#X connect 110 13 75 1 empty;
#X connect 110 14 76 1 empty;
#X connect 110 15 77 1 empty;
#X connect 111 0 112 0 empty;
#X connect 112 0 48 1 empty;
#X connect 113 0 112 1 empty;
#X connect 114 0 113 0 empty;
#X connect 115 0 51 0 empty;
