#N canvas 733 172 450 300 snare_drum 1;
#X obj 279 79 bng 25 250 50 0 empty empty empty 17 7 0 10 #191919 #e1e1e1 #e1e1e1;
#X msg 159 139 400 4 \, 200 10 4;
#X msg 299 139 1 4 \, 0 100 4;
#X msg 439 139 0.4 4 \, 0 300 4;
#X obj 439 168 vline~;
#X obj 439 199 pow~ 1.4;
#X obj 299 168 vline~;
#X obj 219 259 *~;
#X obj 159 168 vline~;
#X obj 159 197 osc~;
#X obj 419 259 *~;
#X obj 379 199 noise~;
#X obj 299 199 pow~ 4;
#X obj 279 39 inlet;
#X obj 319 319 *~ 0.8;
#X obj 319 359 outlet~;
#X obj 1536 1536;
#X connect 0 0 3 0 empty;
#X connect 0 0 2 0 empty;
#X connect 0 0 1 0 empty;
#X connect 1 0 8 0 empty;
#X connect 2 0 6 0 empty;
#X connect 3 0 4 0 empty;
#X connect 4 0 5 0 empty;
#X connect 5 0 10 1 empty;
#X connect 6 0 12 0 empty;
#X connect 7 0 14 0 empty;
#X connect 8 0 9 0 empty;
#X connect 9 0 7 0 empty;
#X connect 10 0 14 0 empty;
#X connect 11 0 10 0 empty;
#X connect 12 0 7 1 empty;
#X connect 13 0 0 0 empty;
#X connect 14 0 15 0 empty;
