#N canvas 827 239 527 327 12;
#X obj 294 214 click~;
#X obj 294 361 out~;
#X obj 405 92 tgl 21 0 empty empty empty 0 -11 0 12 #fcfcfc #000000 #000000 0 1;
#X obj 291 323 pan2~;
#X obj 487 214 random 200;
#X obj 487 248 scale 0 200 -1 1;
#X obj 487 279 nbx 6 21 -1e+37 1e+37 0 0 empty empty empty 0 -8 0 10 #191919 #ffffff #ffffff 0 256;
#X obj 396 166 metro 100;
#X msg 272 166 set -1 0.25 1 0.5;
#X obj 294 248 slide~ 1 1000;
#X obj 431 94 hsl 128 17 100 1000 0 0 empty empty empty -2 -8 0 10 #191919 #ffffff #ffffff 0 1;
#X obj 431 124 t b f;
#X obj 294 282 compress~ -30 5 5 5 12 256;
#X connect 0 0 9 0 empty;
#X connect 2 0 7 0 empty;
#X connect 2 0 8 0 empty;
#X connect 3 0 1 0 empty;
#X connect 3 1 1 1 empty;
#X connect 4 0 5 0 empty;
#X connect 5 0 6 0 empty;
#X connect 6 0 3 1 empty;
#X connect 7 0 0 0 empty;
#X connect 7 0 4 0 empty;
#X connect 8 0 0 0 empty;
#X connect 9 0 12 0 empty;
#X connect 10 0 11 0 empty;
#X connect 10 0 2 0 empty;
#X connect 11 0 7 0 empty;
#X connect 11 1 7 1 empty;
#X connect 12 0 3 0 empty;
