#N canvas 827 239 527 327 12;
#X obj 1083 324 vradio 20 1 0 5 empty empty empty 0 -8 0 10 #e3dfd9 #5a5a5a #5a5a5a 0;
#X text 1109 323 Acoustic Scale;
#X text 1109 345 Algerian Scale;
#X text 1112 367 Blues Scale;
#X text 1112 388 Chromatic Scale;
#X text 1112 411 Persian Scale;
#X obj 1601 338 receive scale_note;
#X obj 1601 454 keyboard 16 80 4 2 0 0 empty empty;
#X obj 1601 367 + 48;
#X obj 1601 426 pack f f;
#X obj 1601 397 makenote 100 500;
#X obj 1223 619 receive scale_note;
#X obj 1264 737 mtof;
#X obj 1274 991 out~;
#X obj 1266 701 +;
#X obj 1263 763 saw~;
#X obj 1128 811 vline~;
#X obj 1269 875 *~;
#X msg 1136 750 1 10 \, 0 1000 10;
#X msg 1407 586 -12;
#X msg 1484 586 12;
#X obj 1407 672 f 48;
#X obj 1446 672 +;
#X obj 1407 627 bng 25 250 50 0 empty empty empty 17 7 0 10 #e3dfd9 #5a5a5a #5a5a5a;
#X floatatom 1407 701 5 0 0 0 empty - - 12;
#X obj 1232 649 t b f;
#X obj 810 324 random;
#X obj 843 296 receive scale_list_length;
#X obj 809 293 bng 25 250 50 0 empty empty empty 17 7 0 10 #e3dfd9 #5a5a5a #5a5a5a;
#X floatatom 810 353 5 0 0 0 empty - - 12;
#N canvas 0 22 450 300 scales 1;
#X obj 436 489 text get \$0-scale;
#X listbox 436 517 34 0 0 0 empty - - 12;
#X msg 465 465 -1;
#X obj 532 438 loadbang;
#X obj 674 465 text define -k \$0-scale;
#A set 0 2 4 6 7 9 10 \; 0 2 3 6 7 9 11 12 14 15 17 \; 0 3 5 6 7 10 \; 0 1 2 3 4 5 6 7 8 9 10 11 \; 0 1 4 5 6 8 11 \;;
#X obj 557 551 list length;
#X obj 436 544 outlet scale_list;
#X obj 557 577 outlet scale_length;
#X obj 334 601 list store;
#X msg 334 570 get \$1;
#X floatatom 334 628 5 0 0 0 empty - - 12;
#X obj 430 431 inlet scale;
#X obj 334 438 inlet note;
#X obj 334 660 outlet scale_note;
#X connect 0 0 1 0;
#X connect 1 0 6 0;
#X connect 1 0 8 1;
#X connect 1 0 5 0;
#X connect 2 0 0 1;
#X connect 3 0 2 0;
#X connect 5 0 7 0;
#X connect 8 0 10 0;
#X connect 9 0 8 0;
#X connect 10 0 13 0;
#X connect 11 0 0 0;
#X connect 12 0 9 0;
#X restore 1036 441 pd scales;
#X floatatom 1368 477 5 0 0 0 empty - - 12;
#X listbox 1102 477 17 0 0 0 empty - - 10;
#X floatatom 952 477 5 0 0 0 empty - - 12;
#X obj 1368 500 send scale_list_length;
#X text 864 476 notation (note);
#X text 1006 476 notation (scale);
#X text 1290 476 scale length;
#X connect 0 0 30 1;
#X connect 6 0 8 0;
#X connect 8 0 10 0;
#X connect 9 0 7 0;
#X connect 10 0 9 0;
#X connect 10 1 9 1;
#X connect 11 0 25 0;
#X connect 12 0 15 0;
#X connect 14 0 12 0;
#X connect 15 0 17 0;
#X connect 16 0 17 1;
#X connect 17 0 13 0;
#X connect 18 0 16 0;
#X connect 19 0 22 1;
#X connect 19 0 23 0;
#X connect 20 0 22 1;
#X connect 20 0 23 0;
#X connect 21 0 22 0;
#X connect 21 0 24 0;
#X connect 22 0 21 1;
#X connect 23 0 21 0;
#X connect 24 0 14 1;
#X connect 25 0 18 0;
#X connect 25 1 14 0;
#X connect 26 0 29 0;
#X connect 27 0 26 1;
#X connect 28 0 26 0;
#X connect 29 0 30 0;
#X connect 30 0 33 0;
#X connect 30 1 32 0;
#X connect 30 2 31 0;
#X connect 31 0 34 0;
