#N canvas 827 239 527 327 12;
#X obj 602 114 delwrite~ tape_delay 2000;
#X obj 624 67 r~ feedback;
#X floatatom 928 278 10 0 0 0 - - - 16;
#X msg 928 305 \$1 100;
#X obj 928 363 delread~ tape_delay;
#X obj 1046 415 lop~ 8000;
#X obj 1046 444 lop~ 8000;
#X obj 1046 473 hip~ 300;
#X obj 1046 540 *~;
#X obj 1046 569 s~ feedback;
#X floatatom 1395 494 11 0 0 0 - - - 24;
#X obj 1404 345 vsl 17 128 0 1 1 0 empty empty empty 0 -9 0 10 #191919 #ffffff #ffffff 0 1;
#X obj 932 114 vsl 17 128 100 2000 0 0 empty empty empty 0 -9 0 10 #191919 #ffffff #ffffff 0 1;
#X obj 242 452 *~;
#X obj 397 450 *~;
#X floatatom 265 416 5 0 0 0 - - - 12;
#X floatatom 422 416 5 0 0 0 - - - 12;
#X obj 431 266 vsl 17 128 0 1 1 0 empty empty empty 0 -9 0 10 #191919 #ffffff #ffffff 0 1;
#X obj 274 270 vsl 17 128 0 1 1 0 empty empty empty 0 -9 0 10 #191919 #ffffff #ffffff 0 1;
#X obj 118 134 bng 25 250 50 0 empty empty empty 17 7 0 10 #191919 #ffffff #ffffff;
#X obj 118 167 openpanel;
#X msg 118 196 read -resize \$1 audio_data;
#X obj 118 225 soundfiler;
#X floatatom 118 254 5 0 0 0 - - - 12;
#N canvas 0 50 450 250 (subpatch) 0;
#X array audio_data 1.32301e+06 float 0;
#X coords 0 1 1.32301e+06 -1 200 140 1;
#X restore 265 30 graph;
#X obj 88 332 tabplay~ audio_data;
#X obj 88 291 bng 25 250 50 0 empty empty empty 17 7 0 10 #191919 #ffffff #ffffff;
#X obj 325 554 dac~;
#X obj 928 334 line;
#X obj 539 67 r~ signal;
#X obj 48 377 s~ signal;
#X obj 307 416 r~ delay_signal;
#X obj 932 415 s~ delay_signal;
#X obj 1156 171 vsl 17 128 100 22000 0 0 empty empty empty 0 -9 0 10 #191919 #ffffff #ffffff 0 1;
#X obj 1297 225 vsl 17 128 0 500 0 0 empty empty empty 0 -9 0 10 #191919 #ffffff #ffffff 0 1;
#X connect 1 0 0 0 empty;
#X connect 2 0 3 0 empty;
#X connect 3 0 28 0 empty;
#X connect 4 0 5 0 empty;
#X connect 4 0 32 0 empty;
#X connect 5 0 6 0 empty;
#X connect 6 0 7 0 empty;
#X connect 7 0 8 0 empty;
#X connect 8 0 9 0 empty;
#X connect 10 0 8 1 empty;
#X connect 11 0 10 0 empty;
#X connect 12 0 2 0 empty;
#X connect 13 0 27 0 empty;
#X connect 13 0 27 1 empty;
#X connect 14 0 27 0 empty;
#X connect 14 0 27 1 empty;
#X connect 15 0 13 1 empty;
#X connect 16 0 14 1 empty;
#X connect 17 0 16 0 empty;
#X connect 18 0 15 0 empty;
#X connect 19 0 20 0 empty;
#X connect 20 0 21 0 empty;
#X connect 21 0 22 0 empty;
#X connect 22 0 23 0 empty;
#X connect 25 0 13 0 empty;
#X connect 25 0 30 0 empty;
#X connect 26 0 25 0 empty;
#X connect 28 0 4 0 empty;
#X connect 29 0 0 0 empty;
#X connect 31 0 14 0 empty;
#X connect 33 0 5 1 empty;
#X connect 33 0 6 1 empty;
#X connect 34 0 7 1 empty;
